{
  "accessors": [
    {
      "bufferView": 2,
      "componentType": 5126,
      "count": 65532,
      "max": [
        7.80088996887207,
        10.217439651489258,
        5.722899913787842
      ],
      "min": [
        0.3418700695037842,
        0.3845100402832031,
        0.0
      ],
      "type": "VEC3"
    },
    {
      "bufferView": 2,
      "byteOffset": 786384,
      "componentType": 5126,
      "count": 65532,
      "max": [
        0.9999756217002869,
        0.9999988675117493,
        0.9999963641166687
      ],
      "min": [
        -0.9999980926513672,
        -0.9999488592147827,
        -0.9999783635139465
      ],
      "type": "VEC3"
    },
    {
      "bufferView": 1,
      "componentType": 5126,
      "count": 65532,
      "max": [
        0.9990419745445251,
        0.9990460276603699
      ],
      "min": [
        0.0009537970181554556,
        0.0009534709970466793
      ],
      "type": "VEC2"
    },
    {
      "bufferView": 0,
      "componentType": 5125,
      "count": 374520,
      "type": "SCALAR"
    },
    {
      "bufferView": 2,
      "byteOffset": 1572768,
      "componentType": 5126,
      "count": 65532,
      "max": [
        7.479129791259766,
        10.217439651489258,
        5.722899913787842
      ],
      "min": [
        0.0,
        0.0,
        0.019520044326782227
      ],
      "type": "VEC3"
    },
    {
      "bufferView": 2,
      "byteOffset": 2359152,
      "componentType": 5126,
      "count": 65532,
      "max": [
        0.9986585974693298,
        0.9999988675117493,
        0.9999963641166687
      ],
      "min": [
        -0.9999740123748779,
        -0.9999067783355713,
        -0.9999038577079773
      ],
      "type": "VEC3"
    },
    {
      "bufferView": 1,
      "byteOffset": 524256,
      "componentType": 5126,
      "count": 65532,
      "max": [
        0.9990419745445251,
        0.9990460276603699
      ],
      "min": [
        0.0009537970181554556,
        0.0009537970181554556
      ],
      "type": "VEC2"
    },
    {
      "bufferView": 0,
      "byteOffset": 1498080,
      "componentType": 5125,
      "count": 372540,
      "type": "SCALAR"
    },
    {
      "bufferView": 2,
      "byteOffset": 3145536,
      "componentType": 5126,
      "count": 6272,
      "max": [
        3.9158568382263184,
        5.406000137329102,
        5.30826997756958
      ],
      "min": [
        1.9093599319458008,
        0.3848695755004883,
        0.46661996841430664
      ],
      "type": "VEC3"
    },
    {
      "bufferView": 2,
      "byteOffset": 3220800,
      "componentType": 5126,
      "count": 6272,
      "max": [
        0.09518302232027054,
        0.9915926456451416,
        0.9668936133384705
      ],
      "min": [
        -0.9999375343322754,
        -0.9993496537208557,
        -0.8909406661987305
      ],
      "type": "VEC3"
    },
    {
      "bufferView": 1,
      "byteOffset": 1048512,
      "componentType": 5126,
      "count": 6272,
      "max": [
        0.8251309990882874,
        0.9374499917030334
      ],
      "min": [
        0.41762199997901917,
        0.5516809821128845
      ],
      "type": "VEC2"
    },
    {
      "bufferView": 0,
      "byteOffset": 2988240,
      "componentType": 5125,
      "count": 33300,
      "type": "SCALAR"
    }
  ],
  "asset": {
    "extras": {
      "author": "fpernudo (https://sketchfab.com/fpernudo)",
      "license": "CC-BY-NC-4.0 (http://creativecommons.org/licenses/by-nc/4.0/)",
      "source": "https://sketchfab.com/3d-models/zombie-bust-3385b9dba37d4ac7b8cbf796c68cc021",
      "title": "Zombie bust"
    },
    "generator": "Sketchfab-12.68.0",
    "version": "2.0"
  },
  "bufferViews": [
    {
      "buffer": 0,
      "byteLength": 3121440,
      "name": "floatBufferViews",
      "target": 34963
    },
    {
      "buffer": 0,
      "byteLength": 1098688,
      "byteOffset": 3121440,
      "byteStride": 8,
      "name": "floatBufferViews",
      "target": 34962
    },
    {
      "buffer": 0,
      "byteLength": 3296064,
      "byteOffset": 4220128,
      "byteStride": 12,
      "name": "floatBufferViews",
      "target": 34962
    }
  ],
  "buffers": [
    {
      "byteLength": 7516192,
      "uri": "scene.bin"
    }
  ],
  "extensionsRequired": [
    "KHR_materials_pbrSpecularGlossiness"
  ],
  "extensionsUsed": [
    "KHR_materials_pbrSpecularGlossiness"
  ],
  "images": [
    {
      "uri": "textures/SculptMaterial_diffuse.png"
    }
  ],
  "materials": [
    {
      "doubleSided": true,
      "emissiveFactor": [
        0.2,
        0.2,
        0.2
      ],
      "emissiveTexture": {
        "index": 0
      },
      "extensions": {
        "KHR_materials_pbrSpecularGlossiness": {
          "diffuseFactor": [
            1.0,
            1.0,
            1.0,
            1.0
          ],
          "diffuseTexture": {
            "index": 0
          },
          "glossinessFactor": 0.4,
          "specularFactor": [
            0.7000000000000001,
            0.7000000000000001,
            0.7000000000000001
          ],
          "specularGlossinessTexture": {
            "index": 0
          }
        }
      },
      "name": "SculptMaterial"
    }
  ],
  "meshes": [
    {
      "name": "Object_0",
      "primitives": [
        {
          "attributes": {
            "NORMAL": 1,
            "POSITION": 0,
            "TEXCOORD_0": 2
          },
          "indices": 3,
          "material": 0,
          "mode": 4
        }
      ]
    },
    {
      "name": "Object_1",
      "primitives": [
        {
          "attributes": {
            "NORMAL": 5,
            "POSITION": 4,
            "TEXCOORD_0": 6
          },
          "indices": 7,
          "material": 0,
          "mode": 4
        }
      ]
    },
    {
      "name": "Object_2",
      "primitives": [
        {
          "attributes": {
            "NORMAL": 9,
            "POSITION": 8,
            "TEXCOORD_0": 10
          },
          "indices": 11,
          "material": 0,
          "mode": 4
        }
      ]
    }
  ],
  "nodes": [
    {
      "children": [
        1
      ],
      "matrix": [
        1.0,
        0.0,
        0.0,
        0.0,
        0.0,
        -0.9974889755249023,
        0.07082232832908608,
        0.0,
        0.0,
        -0.07082232832908608,
        -0.9974889755249023,
        0.0,
        0.0,
        -2.1387844085693364,
        2.838433742523193,
        1.0
      ],
      "name": "Sketchfab_model"
    },
    {
      "children": [
        2,
        3,
        4
      ],
      "matrix": [
        1.0,
        0.0,
        0.0,
        0.0,
        0.0,
        1.0,
        0.0,
        0.0,
        0.0,
        0.0,
        1.0,
        0.0,
        -3.9148600101470947,
        -7.524089813232422,
        -2.6088099479675293,
        1.0
      ],
      "name": "zombie .obj.cleaner.gles"
    },
    {
      "mesh": 0,
      "name": "Object_2"
    },
    {
      "mesh": 1,
      "name": "Object_3"
    },
    {
      "mesh": 2,
      "name": "Object_4"
    }
  ],
  "samplers": [
    {
      "magFilter": 9729,
      "minFilter": 9987,
      "wrapS": 10497,
      "wrapT": 10497
    }
  ],
  "scene": 0,
  "scenes": [
    {
      "name": "Sketchfab_Scene",
      "nodes": [
        0
      ]
    }
  ],
  "textures": [
    {
      "sampler": 0,
      "source": 0
    }
  ]
}
